Coordinates
version=1
nRows=27
nColumns=38
inDegrees=no

Units are S.I. units (second, meters, Newtons, ...)
If the header above contains a line with 'inDegrees', this indicates whether rotational values are in degrees (yes) or radians (no).

endheader
time	pelvis_tilt	pelvis_list	pelvis_rotation	pelvis_tx	pelvis_ty	pelvis_tz	hip_flexion_r	hip_adduction_r	hip_rotation_r	knee_angle_r	ankle_angle_r	subtalar_angle_r	mtp_angle_r	hip_flexion_l	hip_adduction_l	hip_rotation_l	knee_angle_l	ankle_angle_l	subtalar_angle_l	mtp_angle_l	lumbar_extension	lumbar_bending	lumbar_rotation	arm_flex_r	arm_add_r	arm_rot_r	elbow_flex_r	pro_sup_r	wrist_flex_r	wrist_dev_r	arm_flex_l	arm_add_l	arm_rot_l	elbow_flex_l	pro_sup_l	wrist_flex_l	wrist_dev_l
0	2.83669	1.35773	-1.02969	0.631407	-0.778401	0.938141	0.0820449	-0.0396492	-0.465945	0.388025	0.0187663	0	0	-0.523557	-0.17321	-0.3104	0.192489	0.126933	0	0	-0.626203	0.142228	-0.0521742	0.427209	-0.792299	0.760135	1.33042	0.85842	0	0	0.417537	-0.501964	0.623641	1.50154	1.23099	0	0
0.01	2.92445	1.35922	-1.11452	0.630813	-0.774746	0.941012	0.0748896	-0.0565864	-0.455358	0.397338	0.0222052	0	0	-0.523599	-0.154005	-0.295214	0.201282	0.0957163	0	0	-0.642743	0.133388	-0.0533669	0.383302	-0.799181	0.71207	1.36236	0.88054	0	0	0.421427	-0.507088	0.644371	1.50294	1.24365	0	0
0.02	2.83748	1.36528	-1.02554	0.632711	-0.7661	0.938054	0.0730381	-0.0136209	-0.351976	0.372978	0.0285014	0	0	-0.520765	-0.176263	-0.294922	0.20121	0.106399	0	0	-0.622561	0.147692	-0.0469538	0.334835	-0.793894	0.675018	1.38289	0.892665	0	0	0.389909	-0.510611	0.631389	1.51405	1.25317	0	0
0.03	2.98992	1.35559	-1.18481	0.632979	-0.763352	0.94468	0.039637	-0.0467595	-0.389835	0.363575	0.023108	0	0	-0.523599	-0.153098	-0.326979	0.216826	0.0750211	0	0	-0.659843	0.127391	-0.0493236	0.310185	-0.7898	0.64151	1.40189	0.932692	0	0	0.374238	-0.497845	0.522947	1.54318	1.5708	0	0
0.04	2.71114	1.37283	-0.91491	0.637863	-0.757773	0.940506	0.0832054	-0.00355321	-0.436373	0.36752	0.0221992	0	0	-0.489422	-0.199435	-0.314745	0.237661	0.0859901	0	0	-0.622869	0.162263	-0.0215961	0.283008	-0.786102	0.626005	1.41555	0.940758	0	0	0.345277	-0.499508	0.508879	1.55123	1.5708	0	0
0.05	2.68466	1.37855	-0.889864	0.639853	-0.752547	0.941451	0.0819695	-0.0031809	-0.463429	0.363246	0.0255322	0	0	-0.475903	-0.206236	-0.318082	0.254187	0.0721452	0	0	-0.621006	0.16411	-0.0196149	0.256363	-0.775856	0.601601	1.4252	0.973044	0	0	0.322133	-0.502481	0.494613	1.56003	1.5708	0	0
0.06	2.67525	1.38679	-0.87982	0.64167	-0.747088	0.942192	0.0773171	-0.00104799	-0.46596	0.350223	0.0275453	0	0	-0.461509	-0.209461	-0.317936	0.270502	0.0562901	0	0	-0.617275	0.162367	-0.0222471	0.228945	-0.762249	0.575767	1.43262	1.00634	0	0	0.299376	-0.506586	0.480757	1.56839	1.5708	0	0
0.07	2.66405	1.39494	-0.868273	0.643598	-0.741684	0.942981	0.0718848	0.00244068	-0.46498	0.334258	0.0271313	0	0	-0.446206	-0.212825	-0.31666	0.287687	0.0392219	0	0	-0.613165	0.16011	-0.0246713	0.204998	-0.748554	0.554784	1.43826	1.02992	0	0	0.277725	-0.510862	0.46845	1.57502	1.5708	0	0
0.08	2.72119	1.40273	-0.925909	0.646001	-0.736911	0.945732	0.0582252	-0.00340782	-0.46447	0.316543	0.0241671	0	0	-0.431071	-0.214795	-0.351343	0.31643	0.0172637	0	0	-0.618816	0.147387	-0.0297149	0.186121	-0.73121	0.536883	1.4388	1.04606	0	0	0.262225	-0.517415	0.461702	1.57833	1.5708	0	0
0.09	2.61749	1.40846	-0.823606	0.64771	-0.731222	0.944868	0.060689	0.0132358	-0.46727	0.300211	0.0244731	0	0	-0.413613	-0.221752	-0.307502	0.324405	0.00103441	0	0	-0.604894	0.157228	-0.0245916	0.166542	-0.72457	0.52632	1.44487	1.06544	0	0	0.237954	-0.527789	0.525316	1.55153	1.38542	0	0
0.1	2.78446	1.39428	-0.989008	0.645375	-0.72663	0.951337	0.00444281	0.00293044	-0.487922	0.260384	0.0102224	0	0	-0.444105	-0.200133	-0.286958	0.315986	-0.0460051	0	0	-0.639885	0.152181	-0.0303285	0.155393	-0.724667	0.518451	1.4523	1.08279	0	0	0.224276	-0.521572	0.51573	1.54785	1.39692	0	0
0.11	2.75775	1.41453	-0.974365	0.650175	-0.720649	0.949809	0.0248162	-0.00123985	-0.466192	0.272616	0.0266688	0	0	-0.413886	-0.199954	-0.301012	0.344133	-0.0606906	0	0	-0.620865	0.135488	-0.0239179	0.131784	-0.707994	0.504142	1.45162	1.10122	0	0	0.207929	-0.53128	0.513059	1.55224	1.406	0	0
0.12	2.74142	1.41986	-0.962068	0.652203	-0.715665	0.950588	0.0185875	0.00434853	-0.46269	0.257129	0.023948	0	0	-0.397059	-0.204538	-0.304638	0.36851	-0.0804188	0	0	-0.617469	0.133234	-0.0194526	0.114272	-0.69986	0.494369	1.45317	1.11414	0	0	0.195988	-0.533995	0.51123	1.55241	1.4131	0	0
0.13	2.74292	1.42826	-0.970409	0.655203	-0.709884	0.95044	0.013441	0.00606807	-0.459079	0.243944	0.0288455	0	0	-0.380658	-0.20577	-0.312293	0.393365	-0.0995462	0	0	-0.610116	0.123763	-0.014607	0.0933708	-0.689568	0.483737	1.45399	1.1269	0	0	0.184035	-0.54075	0.511921	1.55425	1.41963	0	0
0.14	2.88738	1.42786	-1.11559	0.657569	-0.70411	0.953002	-0.00846851	-0.00443238	-0.432699	0.236578	0.0348224	0	0	-0.378821	-0.204371	-0.353931	0.420265	-0.128434	0	0	-0.62092	0.104477	-0.0201078	0.0731157	-0.674822	0.470993	1.45242	1.13979	0	0	0.175393	-0.550862	0.513367	1.55497	1.42878	0	0
0.15	2.77006	1.43235	-1.00623	0.659341	-0.69859	0.951536	-0.00731526	0.0144549	-0.4245	0.223135	0.0348813	0	0	-0.360697	-0.211314	-0.323717	0.440838	-0.138564	0	0	-0.607772	0.114037	-0.005653	0.052117	-0.674513	0.46314	1.45972	1.14941	0	0	0.160333	-0.550098	0.510525	1.55171	1.44033	0	0
0.16	2.8907	1.43298	-1.13412	0.661903	-0.694553	0.954538	-0.0249073	0.00400814	-0.415586	0.210833	0.0317979	0	0	-0.3539	-0.209615	-0.36807	0.46971	-0.165294	0	0	-0.61956	0.0955896	-0.00575464	0.0418906	-0.663458	0.458521	1.45771	1.15776	0	0	0.15282	-0.555783	0.507338	1.54736	1.45504	0	0
0.17	2.71537	1.44748	-0.969111	0.663027	-0.688252	0.952353	-0.0105265	0.0218537	-0.403278	0.199529	0.031497	0	0	-0.324196	-0.214333	-0.339334	0.490375	-0.166871	0	0	-0.591022	0.111306	0.00996787	0.0208294	-0.66331	0.452216	1.4642	1.16691	0	0	0.0978823	-0.474153	0.390101	1.50838	1.48567	0	0
0.18	2.74397	1.44106	-1.00211	0.664941	-0.684359	0.952806	-0.0281634	0.0277731	-0.394909	0.187654	0.0326998	0	0	-0.328777	-0.21492	-0.343157	0.501175	-0.168247	0	0	-0.600627	0.104719	0.0165691	0.00651169	-0.658643	0.444873	1.46855	1.17619	0	0	0.129152	-0.554023	0.509129	1.53469	1.44298	0	0
0.19	2.75963	1.44895	-1.02769	0.666987	-0.679069	0.954097	-0.0330164	0.02649	-0.382179	0.175322	0.0297403	0	0	-0.305698	-0.214343	-0.350404	0.537262	-0.17342	0	0	-0.594795	0.0990743	0.0260959	-0.0114143	-0.649468	0.435709	1.46836	1.18349	0	0	0.0904508	-0.490751	0.417215	1.50155	1.44656	0	0
0.2	2.86386	1.43995	-1.13173	0.669782	-0.675142	0.955512	-0.0569145	0.0317295	-0.362533	0.163882	0.0237951	0	0	-0.310209	-0.221274	-0.35916	0.556616	-0.168223	0	0	-0.610147	0.0839233	0.0272373	-0.0239523	-0.640831	0.431707	1.46718	1.18976	0	0	0.124441	-0.568213	0.53144	1.52867	1.39454	0	0
0.21	2.89442	1.43952	-1.1689	0.671589	-0.670746	0.956442	-0.0691837	0.0323911	-0.353381	0.152278	0.0223468	0	0	-0.302237	-0.220457	-0.362707	0.577925	-0.167065	0	0	-0.61195	0.0771806	0.0324594	-0.0348274	-0.633927	0.43001	1.46414	1.19347	0	0	0.117932	-0.573297	0.535738	1.52614	1.38383	0	0
0.22	2.90227	1.43873	-1.18846	0.672701	-0.666759	0.957465	-0.0813792	0.0281198	-0.354635	0.139797	0.0277925	0	0	-0.29167	-0.209835	-0.359351	0.601721	-0.168277	0	0	-0.613697	0.0730796	0.0392308	-0.0402656	-0.628954	0.432765	1.45959	1.19358	0	0	0.127237	-0.590153	0.571536	1.51986	1.36944	0	0
0.23	2.96947	1.43832	-1.25663	0.675046	-0.662449	0.958455	-0.0945097	0.0313893	-0.331961	0.127961	0.0190271	0	0	-0.284327	-0.215178	-0.36436	0.620611	-0.154561	0	0	-0.616224	0.0624731	0.0381624	-0.0493586	-0.61951	0.431267	1.45374	1.21762	0	0	0.117426	-0.592454	0.562953	1.51512	1.39818	0	0
0.24	3.0069	1.43739	-1.30036	0.676744	-0.658483	0.959394	-0.106357	0.0299588	-0.323082	0.117206	0.0170873	0	0	-0.274907	-0.21183	-0.364551	0.640603	-0.146058	0	0	-0.618033	0.0550801	0.0404337	-0.0548102	-0.613003	0.434143	1.44838	1.2222	0	0	0.106808	-0.593504	0.556408	1.51039	1.40083	0	0
0.25	3.08335	1.43591	-1.38118	0.679081	-0.655448	0.961206	-0.118065	0.0239239	-0.315369	0.107255	0.0132765	0	0	-0.267967	-0.204625	-0.370237	0.652024	-0.145057	0	0	-0.623654	0.0419265	0.0386855	-0.0563077	-0.602646	0.43765	1.43995	1.22559	0	0	0.100024	-0.598459	0.552923	1.50554	1.40672	0	0
0.26	3.07513	1.43529	-1.38041	0.680007	-0.65097	0.961136	-0.128611	0.0272188	-0.304335	0.0962257	0.0119613	0	0	-0.254287	-0.202985	-0.357621	0.676736	-0.134346	0	0	-0.620521	0.0408658	0.0449719	-0.0648771	-0.601531	0.440226	1.43902	1.22772	0	0	0.0865944	-0.59635	0.549274	1.49816	1.41341	0	0
